<?xml version="1.0" standalone="no"?>
<!DOCTYPE svg PUBLIC "-//W3C//DTD SVG 20010904//EN"
 "http://www.w3.org/TR/2001/REC-SVG-20010904/DTD/svg10.dtd">
<svg version="1.0" xmlns="http://www.w3.org/2000/svg"
 width="500.000000pt" height="375.000000pt" viewBox="0 0 500.000000 375.000000"
 preserveAspectRatio="xMidYMid meet">

<g transform="translate(0.000000,375.000000) scale(0.100000,-0.100000)"
fill="#000000" stroke="none">
<path d="M1 2718 c1 -568 4 -1023 6 -1012 4 22 28 35 69 39 11 1 34 6 50 10
16 5 34 7 40 6 7 -1 14 5 18 14 3 8 12 15 19 15 8 0 20 7 27 15 10 12 10 15
-4 15 -9 0 -16 5 -16 10 0 6 11 8 25 4 17 -4 32 -1 44 10 10 10 41 19 67 21
27 2 50 9 52 15 2 5 9 7 14 3 7 -4 9 2 6 15 -4 15 -3 20 5 15 17 -11 57 -11
50 1 -4 5 3 7 16 3 14 -3 31 3 50 18 17 15 31 21 37 15 6 -6 24 2 47 21 21 17
44 29 51 26 8 -3 17 -3 20 1 4 3 12 7 19 8 62 10 143 30 148 37 3 4 19 10 35
13 16 3 32 10 35 16 4 7 15 13 24 14 9 1 32 10 52 19 19 9 37 14 40 11 7 -7 9
-6 -41 -39 -59 -39 -22 -46 40 -8 89 56 90 56 152 43 30 -6 57 -10 60 -8 2 3
-33 13 -77 23 -49 11 -81 23 -81 30 0 7 9 13 19 13 11 0 23 4 26 10 3 6 17 10
31 10 13 0 24 5 24 10 0 6 9 10 21 10 11 0 28 4 37 9 11 6 73 2 167 -9 221
-28 325 -35 325 -22 0 6 -5 12 -11 14 -6 2 -11 41 -12 98 -2 90 -3 95 -24 98
-26 4 -27 6 -13 32 6 11 17 17 25 14 20 -8 19 -2 -4 24 -24 29 -17 72 13 72
l21 1 -22 18 c-13 11 -23 27 -23 37 0 17 1 17 13 -1 9 -12 16 -14 21 -7 7 12
-21 46 -45 54 -11 4 -12 9 -1 27 15 25 16 51 2 51 -5 0 -10 9 -10 20 0 11 -6
20 -12 20 -10 0 -10 2 0 9 7 4 14 14 15 22 2 8 7 20 11 28 6 10 5 12 -2 7 -7
-4 -12 -2 -12 4 0 6 -4 8 -10 5 -6 -3 -10 4 -10 17 0 19 2 20 10 8 9 -13 11
-13 20 0 5 8 9 22 9 30 0 10 -3 8 -8 -5 -8 -19 -8 -19 -19 2 -15 27 -6 53 16
47 14 -4 13 -3 -1 6 -14 9 -17 19 -12 37 4 18 2 23 -6 17 -9 -5 -10 0 -6 17 4
13 7 41 7 62 0 26 4 36 12 31 13 -8 3 12 -20 38 -15 18 -8 43 10 32 8 -5 9 -1
5 10 -4 10 -7 23 -7 29 0 7 -5 6 -11 -3 -8 -11 -9 0 -5 42 4 40 2 58 -7 61 -6
3 -7 6 -2 6 10 1 10 124 -1 280 -6 82 -6 84 15 78 11 -3 21 -2 21 3 0 4 -11
11 -24 14 -15 4 -26 14 -28 29 l-3 22 -812 3 -813 2 1 -1032z m1659 367 l-8
-40 -1 36 c0 20 2 39 6 42 11 11 11 4 3 -38z m-537 -556 c20 -5 37 -16 37 -24
0 -7 3 -21 7 -30 7 -19 10 -19 -89 10 -53 16 -69 31 -51 48 9 10 53 8 96 -4z"/>
<path d="M1820 3730 c15 -12 19 -20 11 -20 -8 0 -11 -3 -8 -6 4 -4 18 1 31 10
15 9 27 12 31 6 8 -13 -4 -32 -16 -24 -13 8 -40 -16 -33 -28 4 -6 -2 -5 -14 1
-33 18 -38 13 -34 -30 3 -29 8 -39 18 -35 8 3 14 -1 14 -8 0 -8 6 -16 13 -19
6 -2 9 -8 5 -12 -9 -10 -83 38 -118 77 l-27 30 -5 -31 c-2 -17 0 -29 6 -28 5
1 10 -3 11 -9 0 -7 12 -24 28 -39 15 -15 27 -34 27 -41 0 -8 8 -14 18 -14 14
0 15 2 2 10 -9 6 -10 10 -3 10 15 0 33 -32 33 -59 0 -11 8 -24 18 -30 9 -5 16
-12 15 -15 -5 -13 10 -36 23 -36 10 0 74 -55 74 -65 0 -1 -9 -20 -20 -43 -44
-91 -15 -124 112 -127 36 -1 73 -7 81 -13 8 -7 32 -13 54 -15 24 -1 39 -6 36
-13 -2 -5 5 -19 17 -29 21 -19 27 -71 9 -77 -8 -3 -7 -14 5 -35 9 -18 16 -34
16 -36 0 -5 -30 -1 -50 5 -8 3 -34 11 -56 17 -23 6 -44 17 -47 24 -3 8 -27 12
-68 12 -59 0 -64 -2 -67 -23 -2 -13 4 -32 13 -42 9 -9 18 -37 21 -61 3 -24 9
-45 15 -47 5 -2 9 -8 9 -12 0 -5 12 -22 27 -37 16 -17 24 -21 20 -10 -4 12 -1
17 10 17 12 0 11 5 -8 22 -18 16 -20 20 -6 15 24 -9 44 2 26 14 -11 6 -11 11
-2 20 14 14 36 2 29 -17 -3 -8 -1 -14 4 -14 6 0 10 4 10 10 0 18 65 -19 107
-61 40 -40 43 -47 43 -96 0 -29 -3 -53 -7 -53 -5 -1 -19 -10 -32 -20 -27 -23
-18 -44 27 -55 15 -4 30 -11 33 -17 4 -5 18 -11 33 -11 17 -1 26 -8 26 -19 0
-9 6 -19 13 -21 7 -3 5 -6 -5 -6 -10 -1 -18 4 -18 9 0 6 -12 10 -27 9 -26 -1
-26 -2 12 -19 22 -11 44 -15 48 -11 8 8 77 -5 115 -22 16 -8 26 -7 34 1 9 9 9
12 0 12 -7 0 -12 7 -12 15 0 8 6 15 14 15 8 0 18 5 22 11 4 8 -3 9 -23 5 -22
-5 -34 -2 -47 13 -17 19 -17 21 -2 27 9 3 13 11 10 16 -11 17 -32 223 -23 226
14 6 -3 34 -46 76 -22 23 -44 49 -48 59 -3 9 -12 17 -19 17 -41 1 -91 87 -100
173 -4 36 -2 47 8 47 8 0 19 -11 24 -24 14 -38 30 -41 30 -7 0 16 -5 33 -10
36 -12 7 -5 75 8 85 4 3 12 14 19 25 6 11 16 19 22 18 10 -3 11 5 11 67 0 56
43 211 61 220 16 9 18 6 17 -30 -1 -52 9 -61 32 -32 28 34 33 27 27 -38 -3
-33 -1 -60 4 -60 5 0 9 -9 9 -20 0 -13 7 -20 20 -20 12 0 34 -7 51 -15 29 -16
29 -15 35 13 l6 30 39 -16 c38 -14 40 -14 59 8 11 13 20 17 20 10 0 -9 7 -8
25 4 28 18 39 21 30 6 -4 -7 3 -9 19 -6 19 3 26 0 26 -11 0 -11 6 -14 24 -9
13 3 26 2 28 -3 2 -5 38 -11 82 -14 66 -4 81 -2 96 13 10 10 21 16 24 13 3 -3
12 -1 19 5 8 7 16 9 19 7 3 -3 12 5 21 19 13 19 14 25 3 29 -18 7 -18 64 0 71
8 3 14 10 14 16 0 6 7 19 16 27 13 13 13 17 2 24 -9 6 -9 9 -1 9 6 0 14 8 17
18 4 9 23 35 44 57 78 84 112 76 -311 75 l-376 -1 -3 -45 c-2 -24 -7 -44 -12
-44 -14 -1 -19 47 -6 55 5 3 10 13 10 21 0 10 -12 14 -40 14 -27 0 -39 -4 -38
-12 2 -9 -12 -13 -44 -13 -27 0 -48 -4 -49 -10 0 -5 -4 0 -9 13 -9 21 -14 22
-147 22 l-138 0 -58 -50 c-51 -43 -60 -48 -78 -37 -10 6 -19 15 -19 20 0 17
-58 65 -68 55 -6 -6 -12 -6 -16 1 -4 6 -19 11 -34 11 l-27 0 25 -20z m950 -47
c0 -7 -7 -13 -15 -13 -11 0 -14 -9 -13 -32 3 -27 -1 -33 -15 -31 -11 0 -28 -8
-39 -19 -17 -17 -22 -18 -29 -7 -24 38 2 103 30 76 11 -10 12 -5 7 26 -4 20
-4 42 -1 47 7 12 75 -30 75 -47z m-161 -67 c1 -5 -5 -3 -13 4 -8 6 -12 19 -9
27 6 14 8 14 14 -3 4 -10 8 -23 8 -28z m-473 -444 c-8 -7 -25 8 -37 31 -11 21
-10 21 15 -2 14 -14 24 -26 22 -29z m205 -572 c6 0 3 -7 -5 -16 -9 -8 -16 -21
-16 -29 0 -10 -5 -11 -25 -2 -31 15 -31 21 0 41 14 9 26 24 26 34 1 11 3 9 6
-5 2 -13 9 -23 14 -23z"/>
<path d="M3493 3742 c-7 -4 -15 -28 -19 -52 -4 -25 -12 -52 -18 -60 -25 -34
-46 -80 -37 -80 6 0 11 7 11 15 0 8 4 15 10 15 6 0 6 -10 -1 -27 -7 -18 -7
-29 0 -31 5 -2 15 -19 21 -38 6 -19 18 -34 26 -34 8 0 19 -11 24 -25 5 -14 14
-25 20 -25 6 0 14 -8 17 -17 9 -24 29 -43 43 -43 7 0 10 -7 6 -15 -3 -8 -1
-15 4 -15 6 0 10 -9 10 -20 0 -11 6 -20 13 -20 26 0 40 -19 43 -60 2 -24 -1
-49 -7 -56 -6 -8 -7 -14 0 -18 10 -7 27 -94 22 -111 -6 -17 -1 -78 8 -90 4 -5
5 -42 2 -82 -5 -53 -3 -69 5 -62 13 10 28 65 25 89 -2 13 0 13 8 1 5 -8 7 -20
4 -28 -3 -7 -1 -13 4 -13 6 0 15 -11 21 -25 10 -21 9 -27 -3 -32 -12 -4 -13
-9 -4 -19 9 -11 8 -14 -5 -14 -9 0 -16 -4 -16 -10 0 -5 5 -10 11 -10 7 0 9
-10 5 -25 -4 -14 -3 -25 1 -25 5 0 9 -14 10 -31 2 -23 -2 -32 -16 -36 -22 -6
-35 -42 -21 -58 5 -6 11 -20 13 -31 1 -10 7 -26 12 -34 5 -8 11 -24 13 -35 4
-24 10 -48 12 -55 1 -3 1 -13 0 -23 -1 -10 3 -24 9 -31 12 -15 22 -104 11
-111 -3 -2 -7 -36 -8 -76 -1 -40 -7 -78 -13 -86 -8 -9 -8 -14 2 -17 34 -12
292 -48 374 -53 146 -9 167 -27 204 -168 12 -43 27 -82 34 -87 8 -5 7 -8 -5
-8 -28 0 -21 -27 10 -39 26 -10 26 -10 2 -8 -28 2 -41 -29 -18 -45 10 -7 10
-11 1 -15 -7 -2 -13 -14 -13 -26 0 -19 12 -25 83 -46 45 -12 90 -25 100 -28
13 -4 17 1 18 18 0 20 3 18 13 -11 22 -58 30 -131 14 -125 -8 3 -12 21 -11 50
2 43 1 45 -35 54 -109 29 -161 41 -171 41 -18 0 -13 -18 7 -23 16 -4 16 -5 0
-6 -21 -1 -25 -50 -5 -55 50 -14 106 -35 82 -30 -16 3 -38 7 -47 10 -35 10
-17 -15 18 -26 46 -16 39 -23 -8 -8 -30 9 -39 8 -52 -5 -25 -24 -19 -34 27
-51 23 -9 32 -14 20 -12 -17 3 -23 -1 -23 -14 0 -12 12 -21 38 -28 37 -11 36
-11 -18 -9 -53 2 -55 1 -58 -25 -3 -25 1 -28 55 -43 81 -23 85 -25 31 -19 -68
9 -64 -16 7 -52 56 -29 68 -42 21 -25 -25 10 -37 -1 -16 -14 19 -12 -1 -25
-28 -19 -37 9 -29 3 61 -44 65 -33 79 -38 84 -25 4 9 1 29 -5 45 -9 24 -8 28
3 18 11 -9 27 -100 17 -100 -1 0 -30 14 -64 31 -34 17 -79 37 -101 45 l-38 14
3 -28 c3 -23 18 -35 100 -80 l96 -53 7 -50 c8 -59 4 -67 -27 -47 -37 24 -179
78 -189 72 -5 -3 -9 -26 -9 -52 0 -26 -9 -128 -20 -227 -31 -276 -60 -566 -60
-597 l0 -28 360 0 360 0 0 1514 c0 1202 -3 1515 -12 1519 -9 4 -10 6 -1 6 9 1
12 91 13 356 l1 355 -203 0 -204 0 -11 -42 c-6 -24 -32 -124 -57 -223 -88
-341 -116 -428 -131 -413 -7 7 131 545 170 666 3 9 -26 12 -125 12 l-129 0 -9
-37 c-6 -21 -40 -163 -77 -315 -60 -244 -70 -278 -87 -278 -14 0 -18 5 -14 18
11 34 146 593 146 602 0 12 -759 14 -777 2z m1237 -569 c0 -35 -35 -133 -47
-133 -7 0 -13 5 -13 11 0 5 5 7 12 3 8 -5 9 0 5 16 -7 26 20 120 34 120 5 0 9
-8 9 -17z m250 -193 c0 -5 -4 -10 -10 -10 -5 0 -10 5 -10 10 0 6 5 10 10 10 6
0 10 -4 10 -10z m-421 -1332 c-2 -28 -2 -29 -6 -8 -3 14 -10 28 -17 32 -7 5
-5 8 7 8 13 0 17 -8 16 -32z m-126 -125 c-7 -2 -19 -2 -25 0 -7 3 -2 5 12 5
14 0 19 -2 13 -5z m44 -9 c-3 -3 -12 -4 -19 -1 -8 3 -5 6 6 6 11 1 17 -2 13
-5z m38 -114 c13 -6 15 -9 5 -9 -8 0 -22 4 -30 9 -18 12 -2 12 25 0z m55 -55
c0 -27 -4 -35 -17 -35 -14 0 -15 2 -4 9 8 5 12 19 9 35 -3 14 -1 26 3 26 5 0
9 -16 9 -35z m60 -118 c4 -34 2 -47 -6 -47 -9 0 -11 11 -7 35 4 22 1 41 -8 52
-12 14 -12 16 1 11 9 -3 17 -22 20 -51z m-103 -23 c-3 -3 -12 -4 -19 -1 -8 3
-5 6 6 6 11 1 17 -2 13 -5z m50 -10 c-3 -3 -12 -4 -19 -1 -8 3 -5 6 6 6 11 1
17 -2 13 -5z m-42 -82 c-3 -3 -11 0 -18 7 -9 10 -8 11 6 5 10 -3 15 -9 12 -12z"/>
<path d="M2556 3109 c-2 -8 -7 -27 -11 -44 -4 -16 -11 -33 -17 -36 -13 -8 27
-87 60 -117 20 -19 32 -22 58 -17 28 5 33 3 28 -10 -3 -8 -3 -23 1 -32 5 -10
7 -27 6 -38 -2 -17 0 -16 11 5 12 22 19 24 84 25 79 0 112 16 145 68 21 35 22
98 2 105 -7 2 -13 -3 -13 -11 0 -14 -32 -57 -44 -57 -3 0 -6 7 -6 15 0 17 -56
21 -80 5 -12 -8 -17 -2 -26 27 -13 44 -74 91 -126 96 -20 2 -44 9 -52 16 -13
11 -17 11 -20 0z m194 -180 c-12 -8 -10 -9 7 -4 26 7 39 -10 23 -30 -16 -20
-22 -19 -48 5 -28 26 -28 38 1 42 29 5 35 0 17 -13z"/>
<path d="M1734 2980 c6 -159 7 -164 16 -110 10 55 2 212 -11 225 -5 5 -7 -38
-5 -115z"/>
<path d="M1767 3084 c7 -3 11 -11 9 -17 -1 -7 -1 -9 1 -4 9 15 25 6 21 -11 -4
-12 1 -18 13 -18 10 0 16 3 13 7 -2 4 3 15 12 23 13 13 13 16 1 16 -8 0 -30 2
-48 5 -19 3 -29 3 -22 -1z"/>
<path d="M1801 2956 c-6 -7 -8 -22 -4 -31 5 -13 3 -16 -7 -10 -8 5 -11 3 -8
-6 3 -8 16 -14 29 -14 19 0 24 5 25 28 1 34 -19 53 -35 33z"/>
<path d="M2470 2901 c0 -11 5 -23 10 -26 6 -3 10 3 10 14 0 11 -4 23 -10 26
-5 3 -10 -3 -10 -14z"/>
<path d="M1806 2843 c-11 -11 -6 -23 9 -23 8 0 15 4 15 9 0 13 -16 22 -24 14z"/>
<path d="M1740 2805 c0 -8 5 -15 11 -15 5 0 7 -6 3 -12 -4 -7 -4 -10 0 -6 4 3
23 0 43 -8 27 -12 38 -12 49 -3 23 19 17 24 -39 42 -65 21 -67 21 -67 2z"/>
<path d="M3732 2808 c2 -6 10 -14 16 -16 7 -2 10 2 6 12 -7 18 -28 22 -22 4z"/>
<path d="M2040 2672 c0 -18 23 -62 32 -62 4 0 8 -7 8 -15 0 -8 7 -15 15 -15 8
0 15 -4 15 -10 0 -5 20 -10 45 -10 25 0 45 3 45 8 0 13 -61 72 -75 72 -8 0
-18 6 -22 14 -10 18 -63 33 -63 18z"/>
<path d="M1746 2572 c-3 -6 -1 -14 5 -17 15 -10 25 3 12 16 -7 7 -13 7 -17 1z"/>
<path d="M2165 2531 c-7 -12 12 -24 25 -16 11 7 4 25 -10 25 -5 0 -11 -4 -15
-9z"/>
<path d="M2185 2490 c-4 -6 7 -10 25 -10 18 0 29 4 25 10 -3 6 -15 10 -25 10
-10 0 -22 -4 -25 -10z"/>
<path d="M2217 2463 c-14 -13 -6 -25 13 -20 10 3 21 0 23 -7 2 -6 8 -8 12 -4
13 12 -3 38 -23 38 -10 0 -22 -3 -25 -7z"/>
<path d="M2280 2420 c0 -5 4 -10 9 -10 6 0 13 5 16 10 3 6 -1 10 -9 10 -9 0
-16 -4 -16 -10z"/>
<path d="M2510 2401 c0 -17 29 -33 50 -26 24 8 26 21 4 29 -23 9 -54 7 -54 -3z"/>
<path d="M2030 2357 c-25 -11 -25 -11 10 -14 19 -2 45 -9 57 -15 31 -15 41 -3
18 22 -20 22 -47 25 -85 7z"/>
<path d="M3025 2360 c-3 -5 -3 -15 1 -22 5 -8 2 -9 -10 -5 -14 6 -17 3 -12 -9
5 -14 4 -15 -9 -4 -13 11 -20 11 -40 0 -14 -7 -25 -17 -25 -22 0 -5 -4 -6 -10
-3 -5 3 -10 1 -10 -5 0 -7 -6 -8 -18 -1 -12 6 -23 5 -37 -5 -10 -8 -29 -14
-41 -14 -20 0 -38 -8 -134 -55 -14 -7 -31 -10 -37 -8 -7 3 -13 -2 -13 -11 0
-9 -6 -16 -13 -16 -22 0 -67 -24 -67 -37 0 -19 -99 -27 -126 -10 -22 13 -21
-4 3 -51 l24 -47 -45 -10 c-24 -5 -47 -13 -50 -16 -4 -3 7 -35 24 -70 40 -86
39 -103 -10 -130 -22 -13 -40 -26 -40 -29 0 -4 -6 -7 -12 -7 -7 0 -21 -4 -30
-8 -14 -6 -18 -2 -18 18 l0 25 -29 -29 c-36 -35 -48 -36 -111 -4 -27 14 -52
21 -55 15 -9 -15 149 -87 207 -95 29 -3 65 -8 79 -11 l27 -5 -55 -109 c-29
-61 -77 -149 -105 -197 -28 -49 -59 -104 -70 -122 -16 -29 -19 -50 -16 -118 2
-49 -1 -85 -7 -87 -5 -3 -2 -5 7 -5 11 -1 21 -14 28 -39 7 -27 18 -43 37 -51
62 -29 133 -51 218 -70 50 -11 151 -33 225 -50 74 -16 230 -48 345 -71 116
-23 237 -48 270 -56 33 -9 78 -17 100 -18 22 -1 45 -4 50 -6 12 -4 98 8 140
21 17 4 48 11 69 14 97 16 130 105 145 403 19 356 13 582 -17 601 -5 3 -14 85
-20 182 -7 97 -15 184 -18 193 -8 21 -75 56 -106 56 -19 0 -20 -2 -8 -10 12
-8 10 -10 -8 -10 -19 0 -22 -4 -17 -20 3 -11 2 -20 -2 -20 -5 0 -9 -16 -10
-35 -1 -39 -39 -99 -58 -91 -7 2 -21 -1 -31 -8 -26 -18 -72 -28 -94 -21 -22 7
-53 80 -45 106 8 26 -12 24 -25 -2 -7 -11 -21 -30 -32 -41 -12 -12 -18 -28
-15 -40 5 -16 1 -19 -20 -16 -20 2 -29 12 -38 38 -9 26 -20 38 -43 46 -18 5
-37 15 -44 22 -7 7 -15 12 -20 12 -4 0 -19 12 -34 27 -24 24 -27 34 -25 81 1
29 11 81 22 114 11 33 18 67 15 74 -6 16 -42 19 -51 4z m-25 -408 c0 -5 -13
-7 -30 -4 -16 2 -30 6 -30 8 0 2 14 4 30 4 17 0 30 -4 30 -8z m-155 -32 c4 -6
-5 -10 -19 -10 -14 0 -26 5 -26 10 0 6 9 10 19 10 11 0 23 -4 26 -10z m-177
-21 c-2 -6 -8 -10 -13 -10 -5 0 -11 4 -13 10 -2 6 4 11 13 11 9 0 15 -5 13
-11z m752 -9 c12 -7 12 -12 2 -22 -9 -9 -12 -9 -12 0 0 7 -12 12 -27 13 -16 0
-37 4 -48 9 -15 7 -9 9 25 9 25 0 52 -4 60 -9z m107 -16 c-3 -3 -12 -4 -19 -1
-8 3 -5 6 6 6 11 1 17 -2 13 -5z m-557 -19 c0 -8 -7 -15 -15 -15 -16 0 -20 12
-8 23 11 12 23 8 23 -8z m-167 -22 c-7 -2 -21 -2 -30 0 -10 3 -4 5 12 5 17 0
24 -2 18 -5z m594 1 c-3 -3 -12 -4 -19 -1 -8 3 -5 6 6 6 11 1 17 -2 13 -5z
m167 -14 c57 -9 81 -24 69 -43 -3 -4 -12 -5 -22 -1 -9 3 -40 12 -70 18 -30 6
-56 17 -59 24 -4 14 5 15 82 2z m-849 -30 c18 -8 18 -9 -5 -8 -14 0 -38 4 -55
8 l-30 8 35 0 c19 0 44 -3 55 -8z m674 -6 c2 -2 2 -6 0 -9 -8 -7 -79 7 -79 16
0 7 70 1 79 -7z m-469 -26 c10 -6 4 -8 -19 -4 -18 3 -46 6 -62 6 -16 0 -29 4
-29 9 0 11 89 2 110 -11z m646 11 c60 -10 83 -27 68 -50 -11 -18 -164 14 -164
35 0 29 9 30 96 15z m-454 -35 c21 -4 36 -10 33 -14 -4 -7 -105 7 -114 16 -6
6 38 5 81 -2z m-385 -45 c76 -11 210 -31 298 -44 173 -26 273 -48 180 -40 -27
2 -180 25 -339 50 -159 25 -296 43 -305 40 -9 -3 -27 -26 -41 -52 -14 -27 -46
-85 -72 -131 -27 -46 -48 -89 -48 -95 0 -7 -5 -18 -12 -25 -12 -12 -15 -11 58
-31 50 -13 54 -13 54 -2 0 4 -21 15 -47 24 l-48 16 55 -6 c81 -9 103 -17 106
-37 3 -24 10 -30 30 -22 9 4 14 12 10 21 -4 13 2 14 37 9 46 -7 71 -21 35 -20
-38 2 -28 -27 11 -32 30 -3 33 -1 28 18 -5 18 -2 20 26 15 207 -33 449 -77
478 -85 24 -7 39 -18 42 -31 4 -14 11 -20 21 -16 8 3 18 2 21 -4 4 -5 10 -7
15 -4 5 3 35 -4 67 -15 31 -11 59 -20 60 -20 2 0 1 11 -3 25 -7 27 3 31 40 16
19 -7 19 -8 0 -15 -18 -7 -18 -8 5 -27 25 -21 58 -24 81 -9 13 9 12 12 -4 25
-17 13 -17 15 -4 15 19 0 24 32 34 222 6 116 6 116 -18 121 -22 4 -21 4 3 6
15 0 36 -7 46 -16 19 -17 19 -23 7 -153 -7 -74 -13 -153 -13 -176 -1 -22 -7
-48 -14 -58 -13 -18 -18 -18 -103 -3 -49 9 -138 24 -199 32 -343 51 -935 165
-958 185 -4 3 3 26 16 51 14 24 54 101 91 172 79 149 54 139 273 106z m641 0
c12 -5 22 -14 22 -21 0 -10 -2 -10 -8 -1 -4 6 -36 16 -71 22 -35 6 -66 13 -70
17 -8 8 97 -6 127 -17z m-75 -96 c-7 -2 -19 -2 -25 0 -7 3 -2 5 12 5 14 0 19
-2 13 -5z m60 -10 c-7 -2 -19 -2 -25 0 -7 3 -2 5 12 5 14 0 19 -2 13 -5z m60
-10 c-7 -2 -19 -2 -25 0 -7 3 -2 5 12 5 14 0 19 -2 13 -5z m65 -10 c-10 -2
-26 -2 -35 0 -10 3 -2 5 17 5 19 0 27 -2 18 -5z m55 -10 c-7 -2 -19 -2 -25 0
-7 3 -2 5 12 5 14 0 19 -2 13 -5z m174 -529 c-9 -9 -28 6 -21 18 4 6 10 6 17
-1 6 -6 8 -13 4 -17z m23 -134 c0 -5 -5 -10 -11 -10 -5 0 -7 5 -4 10 3 6 8 10
11 10 2 0 4 -4 4 -10z"/>
<path d="M2530 1350 c0 -5 5 -10 10 -10 6 0 10 5 10 10 0 6 -4 10 -10 10 -5 0
-10 -4 -10 -10z"/>
<path d="M2814 1311 c7 -11 56 -21 56 -11 0 4 -10 10 -22 14 -32 8 -40 7 -34
-3z"/>
<path d="M2885 1301 c-2 -5 4 -11 15 -14 11 -3 20 -2 20 3 0 12 -28 21 -35 11z"/>
<path d="M2940 1290 c0 -6 3 -10 8 -10 4 -1 25 -3 47 -6 26 -3 35 -2 25 4 -24
15 -80 23 -80 12z"/>
<path d="M3040 1271 c0 -9 37 -19 100 -27 19 -3 47 -9 62 -14 25 -8 49 2 31
13 -12 7 -75 20 -105 22 -15 1 -31 4 -34 8 -10 10 -54 9 -54 -2z"/>
<path d="M2140 2309 c0 -5 5 -7 10 -4 6 3 10 -1 10 -9 0 -9 7 -16 15 -16 8 0
15 -4 15 -10 0 -5 12 -10 26 -10 14 0 35 -5 47 -11 19 -9 18 -7 -3 10 -14 11
-31 21 -38 21 -7 0 -22 9 -34 20 -24 22 -48 26 -48 9z"/>
<path d="M2370 2166 c0 -2 7 -9 15 -16 13 -11 14 -10 9 4 -5 14 -24 23 -24 12z"/>
<path d="M1765 2150 c-8 -13 3 -30 20 -30 20 0 44 -38 38 -60 -3 -13 2 -20 19
-25 12 -4 51 -20 85 -36 72 -34 73 -34 73 -14 0 8 -3 14 -7 13 -20 -6 -73 23
-75 39 -1 10 -2 26 -2 36 -3 44 -131 110 -151 77z"/>
<path d="M915 2031 c-8 -15 7 -19 45 -13 29 4 32 6 15 13 -28 11 -53 11 -60 0z"/>
<path d="M958 1993 c7 -3 16 -2 19 1 4 3 -2 6 -13 5 -11 0 -14 -3 -6 -6z"/>
<path d="M632 1949 c6 -18 47 -27 133 -27 l70 0 -50 9 c-27 5 -70 11 -94 15
-25 3 -49 8 -54 11 -5 3 -8 0 -5 -8z"/>
<path d="M660 1889 c0 -6 -7 -9 -15 -5 -8 3 -15 1 -15 -4 0 -6 17 -9 38 -9 22
1 29 3 17 7 l-20 5 20 8 c19 7 19 8 -2 8 -13 1 -23 -4 -23 -10z"/>
<path d="M728 1883 c6 -2 18 -2 25 0 6 3 1 5 -13 5 -14 0 -19 -2 -12 -5z"/>
<path d="M452 1836 c-12 -6 -19 -15 -16 -19 4 -4 0 -7 -9 -7 -22 0 -67 -21
-67 -32 0 -4 34 -8 75 -8 73 0 75 1 75 25 0 24 -15 35 -22 16 -1 -5 -9 -3 -15
4 -10 11 -8 13 15 11 15 -2 35 -4 45 -5 15 -1 16 -5 7 -21 -9 -16 -8 -20 5
-20 9 0 13 5 10 10 -4 6 6 10 22 11 l28 1 -25 8 -25 8 25 2 25 2 -25 7 c-55
17 -106 20 -128 7z"/>
<path d="M600 1781 c0 -6 -10 -12 -22 -12 -17 -1 -18 -3 -6 -6 23 -6 55 12 39
21 -6 4 -11 2 -11 -3z"/>
<path d="M225 1660 c3 -5 19 -10 36 -10 16 0 29 5 29 10 0 6 -16 10 -36 10
-21 0 -33 -4 -29 -10z"/>
<path d="M303 1645 c0 -12 12 -15 51 -14 28 1 43 3 34 6 -10 2 -18 9 -18 14 0
5 -15 9 -33 9 -23 0 -34 -5 -34 -15z"/>
<path d="M0 1503 c0 -90 5 -104 26 -83 5 5 73 13 149 16 77 3 142 8 144 10 3
3 -1 10 -7 16 -10 10 -8 16 10 30 23 17 22 18 -45 18 -52 0 -66 -3 -61 -12 6
-10 4 -10 -7 0 -7 6 -30 12 -50 12 -21 0 -40 -6 -42 -12 -4 -10 -6 -10 -6 0
-1 6 -12 12 -26 12 -14 0 -25 5 -25 11 0 6 9 8 20 4 11 -3 20 -2 20 4 0 5 -9
13 -20 16 -11 3 -20 15 -20 25 0 12 -9 19 -30 22 l-30 5 0 -94z m40 43 c0 -2
-7 -7 -16 -10 -8 -3 -12 -2 -9 4 6 10 25 14 25 6z m200 -76 c0 -5 -4 -10 -9
-10 -6 0 -13 5 -16 10 -3 6 1 10 9 10 9 0 16 -4 16 -10z m56 -5 c14 -13 13
-15 -10 -15 -16 0 -26 6 -26 15 0 8 5 15 11 15 6 0 17 -7 25 -15z"/>
<path d="M235 1590 c-4 -6 14 -10 47 -9 45 1 49 3 23 9 -44 11 -63 11 -70 0z"/>
<path d="M190 1540 c0 -5 16 -10 36 -10 19 0 33 4 30 8 -7 12 -66 14 -66 2z"/>
<path d="M355 1540 c-3 -5 -1 -10 4 -10 6 0 11 5 11 10 0 6 -2 10 -4 10 -3 0
-8 -4 -11 -10z"/>
<path d="M0 1369 c0 -21 4 -30 13 -27 6 3 33 11 60 19 26 7 47 17 47 21 0 11
-23 10 -53 -1 -19 -8 -27 -6 -31 5 -11 27 -36 16 -36 -17z"/>
<path d="M205 1380 c3 -6 -4 -14 -17 -19 -23 -10 -23 -10 -1 -10 19 -1 53 22
53 35 0 2 -9 4 -21 4 -11 0 -17 -5 -14 -10z"/>
<path d="M0 1310 c0 -5 7 -10 15 -10 8 0 15 5 15 10 0 6 -7 10 -15 10 -8 0
-15 -4 -15 -10z"/>
<path d="M0 596 l0 -596 1900 0 c1045 0 1900 2 1900 5 0 5 -27 18 -179 86 -72
32 -73 33 -52 50 11 10 21 22 21 27 0 6 5 12 12 14 8 3 6 18 -7 52 -31 81 -17
80 260 -19 88 -31 174 -60 190 -63 l30 -5 -33 28 c-39 33 -417 161 -1017 346
-546 168 -811 256 -1100 366 -335 127 -522 189 -629 208 -111 19 -130 19 -195
-1 -65 -19 -141 -89 -141 -130 0 -21 -4 -25 -17 -19 -10 3 -54 19 -98 35 -44
15 -122 44 -174 64 -101 39 -285 92 -391 112 -53 9 -58 12 -30 14 72 4 -12 16
-132 19 l-118 2 0 -595z m1760 -86 c-9 -16 -6 -22 20 -35 17 -9 36 -13 43 -8
8 4 7 1 -2 -10 -7 -9 -18 -14 -25 -10 -6 4 -15 8 -21 8 -5 1 -22 7 -37 14
l-27 14 19 27 c11 16 20 34 20 42 1 8 4 7 11 -4 7 -12 6 -24 -1 -38z"/>
<path d="M4368 1113 c7 -3 16 -2 19 1 4 3 -2 6 -13 5 -11 0 -14 -3 -6 -6z"/>
<path d="M4412 978 c1 -13 6 -29 12 -36 7 -9 6 -16 -2 -21 -7 -4 17 -21 63
-43 41 -20 77 -33 80 -30 3 3 5 18 5 33 0 31 -37 64 -105 95 -22 10 -43 20
-47 22 -4 2 -6 -7 -6 -20z"/>
<path d="M4370 936 c14 -8 27 -12 29 -10 6 6 -1 11 -29 18 l-25 7 25 -15z"/>
</g>
</svg>
